<?xml version="1.0"?>
<svg xmlns="http://www.w3.org/2000/svg" height="512px" viewBox="0 0 64 64" width="512px"><path d="m6 6h2v2h-2z" fill="#1273EB"/><path d="m10 6h2v2h-2z" fill="#1273EB"/><path d="m14 6h2v2h-2z" fill="#1273EB"/><path d="m61 2h-58a1 1 0 0 0 -1 1v58a1 1 0 0 0 1 1h58a1 1 0 0 0 1-1v-58a1 1 0 0 0 -1-1zm-1 8h-40v-6h40zm-56-6h14v6h-14zm0 56v-48h56v48z" fill="#1273EB"/><path d="m55 27h-46a3 3 0 0 0 -3 3v12a3 3 0 0 0 3 3h46a3 3 0 0 0 3-3v-12a3 3 0 0 0 -3-3zm1 15a1 1 0 0 1 -1 1h-46a1 1 0 0 1 -1-1v-12a1 1 0 0 1 1-1h46a1 1 0 0 1 1 1z" fill="#1273EB"/><path d="m26.147 25h23.706a1 1 0 0 0 .964-.739 4.779 4.779 0 0 0 .183-1.261 5.093 5.093 0 0 0 -5.889-4.946 7.374 7.374 0 0 0 -13.273.216 5.268 5.268 0 0 0 -1.664-.27 5.1 5.1 0 0 0 -5.174 5 4.779 4.779 0 0 0 .183 1.261 1 1 0 0 0 .964.739zm4.027-5a3.286 3.286 0 0 1 1.728.492 1 1 0 0 0 1.5-.615 5.336 5.336 0 0 1 10.154-.345 1 1 0 0 0 1.259.644 3.29 3.29 0 0 1 1.011-.176 3.094 3.094 0 0 1 3.174 3h-22a3.094 3.094 0 0 1 3.174-3z" fill="#1273EB"/><path d="m30.111 51.054a7.374 7.374 0 0 0 -13.273.216 5.268 5.268 0 0 0 -1.664-.27 5.1 5.1 0 0 0 -5.174 5 4.779 4.779 0 0 0 .183 1.261 1 1 0 0 0 .964.739h23.706a1 1 0 0 0 .964-.739 4.779 4.779 0 0 0 .183-1.261 5.093 5.093 0 0 0 -5.889-4.946zm-18.111 4.946a3.094 3.094 0 0 1 3.174-3 3.286 3.286 0 0 1 1.728.492 1 1 0 0 0 1.5-.615 5.336 5.336 0 0 1 10.154-.345 1 1 0 0 0 1.259.644 3.29 3.29 0 0 1 1.011-.176 3.094 3.094 0 0 1 3.174 3z" fill="#1273EB"/><path d="m23.274 32.039a1 1 0 0 0 -1.236.686l-1.366 4.784-1.815-3.024a1.039 1.039 0 0 0 -1.714 0l-1.815 3.024-1.366-4.784a1 1 0 0 0 -1.924.55l2 7a1 1 0 0 0 1.819.24l2.143-3.571 2.143 3.571a1 1 0 0 0 .857.485.972.972 0 0 0 .131-.009 1 1 0 0 0 .831-.716l2-7a1 1 0 0 0 -.688-1.236z" fill="#1273EB"/><path d="m37.274 32.039a1 1 0 0 0 -1.236.686l-1.366 4.784-1.815-3.024a1.039 1.039 0 0 0 -1.714 0l-1.815 3.024-1.366-4.784a1 1 0 0 0 -1.924.55l2 7a1 1 0 0 0 1.819.24l2.143-3.571 2.143 3.571a1 1 0 0 0 .857.485.972.972 0 0 0 .131-.009 1 1 0 0 0 .831-.716l2-7a1 1 0 0 0 -.688-1.236z" fill="#1273EB"/><path d="m51.274 32.039a1 1 0 0 0 -1.236.686l-1.366 4.784-1.815-3.024a1.039 1.039 0 0 0 -1.714 0l-1.815 3.024-1.366-4.784a1 1 0 0 0 -1.924.55l2 7a1 1 0 0 0 1.819.24l2.143-3.571 2.143 3.571a1 1 0 0 0 .857.485.972.972 0 0 0 .131-.009 1 1 0 0 0 .831-.716l2-7a1 1 0 0 0 -.688-1.236z" fill="#1273EB"/><path d="m25 14h2v2h-2z" fill="#1273EB"/><path d="m19 18h2v2h-2z" fill="#1273EB"/><path d="m47 56h2v2h-2z" fill="#1273EB"/><path d="m56 56h-5v2h6a1 1 0 0 0 1-1v-8h-2z" fill="#1273EB"/></svg>
